<svg id="Layer_1" data-name="Layer 1" xmlns="http://www.w3.org/2000/svg" width="35.17" height="36.7" viewBox="0 0 35.17 36.7">
  <defs>
    <style>
      .cls-1 {
        fill: #fff;
        fill-rule: evenodd;
      }
    </style>
  </defs>
  <path class="cls-1" d="M25.56,9.1A4.11,4.11,0,0,0,29.69,5a4.15,4.15,0,0,0-8.3,0A4.12,4.12,0,0,0,25.56,9.1ZM33,9.66c-2.4,3.29-5.58,3.66-9,1.68-.22-.15-1.29-.71-1.51-.86C17,7.27,11.48,8.54,7.8,13.62c-1.55,2.17,2.05,4.23,3.61,2.09,1.89-2.65,4.32-3.4,7-2.57-1.37,2.31-2.54,4.63-4.21,7.92s-5.39,5.87-8.92,3.85C2.68,23.42.37,27,2.91,28.54A10.64,10.64,0,0,0,16.38,26a.84.84,0,0,0,.3.15,27.66,27.66,0,0,1,6.45,3.74c.95.78,2.58,4.71,3.53,6.65,1.18,2.39,5,.67,3.79-1.72S27.53,28.09,26.09,27a33.15,33.15,0,0,0-5.27-3.55c1.25-2.47,2.61-4.86,4-7.26,4.48,1.35,8.72-.22,11.76-4.41,1.55-2.17-2.05-4.22-3.6-2.09Z" transform="translate(-1.81 -0.95)"/>
</svg>
