<svg id="Layer_1" data-name="Layer 1" xmlns="http://www.w3.org/2000/svg" width="37.57" height="37.57" viewBox="0 0 37.57 37.57">
  <defs>
    <style>
      .cls-1 {
        fill: #fff;
        fill-rule: evenodd;
      }
    </style>
  </defs>
  <path class="cls-1" d="M38,19.28A18.79,18.79,0,1,1,19.26.5,18.79,18.79,0,0,1,38,19.28ZM22.12,29.15h-.86a.42.42,0,0,0-.41.43.42.42,0,0,0,.41.41h.86a.42.42,0,0,0,.41-.41.42.42,0,0,0-.41-.43Zm-4.24,0H17A.42.42,0,1,0,17,30h.84a.42.42,0,1,0,0-.84Zm2.11,0h-.84a.42.42,0,0,0-.41.43.42.42,0,0,0,.41.41H20a.42.42,0,1,0,0-.84Zm3.37-1.7H15.77a1.27,1.27,0,0,0-1.27,1.27v1.7a1.27,1.27,0,0,0,1.27,1.27h7.59a1.27,1.27,0,0,0,1.27-1.27v-1.7a1.26,1.26,0,0,0-1.27-1.27Zm.44,3a.42.42,0,0,1-.44.4H15.77a.41.41,0,0,1-.41-.4v-1.7a.42.42,0,0,1,.41-.41h7.59a.43.43,0,0,1,.44.41ZM21.28,19.28l8.87,7.57-9.79-6.4A3,3,0,0,1,19,21a2.93,2.93,0,1,1,2.24-1.73Zm12.65,6.35-2.35-1,.27-.67,2.35,1a15.84,15.84,0,0,0,1-5H32.72V18.53h2.51a16.19,16.19,0,0,0-1.08-5.14l-2.35,1-.3-.67,2.35-1a16.15,16.15,0,0,0-8.22-8.14L24.66,7,24,6.66l1-2.35a16.73,16.73,0,0,0-4.95-1V5.82H18.53V3.31a16.31,16.31,0,0,0-5.14,1.08l1,2.35L13.72,7l-1-2.35A16.17,16.17,0,0,0,8.5,7.44l1.78,1.79-1,1L7.47,8.5a15.51,15.51,0,0,0-2.86,4.4L7,13.85l-.27.68-2.35-.95a15.66,15.66,0,0,0-1,5H5.82V20H3.31a16.07,16.07,0,0,0,1.08,5.13l2.35-1,.27.67-2.32,1A16,16,0,0,0,7.47,30l1.76-1.75,1,1L8.5,31.07a15.94,15.94,0,0,0,21.54,0l-1.78-1.79,1-1L31.07,30a15.14,15.14,0,0,0,2.86-4.38Z" transform="translate(-0.47 -0.5)"/>
</svg>
